<svg width="24" height="24" viewBox="0 0 24 24" fill="none" xmlns="http://www.w3.org/2000/svg">
<path d="M8.74996 0L8.74925 1.2495H15.2495L15.2499 0H16.7499L16.7495 1.2495L21.25 1.24997C22.0408 1.24997 22.6886 1.86188 22.7459 2.63803L22.75 2.74997V14.6893C22.75 15.043 22.6252 15.3837 22.3998 15.6526L22.3106 15.75L15.7499 22.3108C15.4998 22.5607 15.1706 22.7133 14.8212 22.7442L14.6894 22.75H5C2.98344 22.75 1.33864 21.1582 1.25346 19.1626L1.25 19V2.74996C1.25 1.95919 1.86191 1.31135 2.63805 1.25409L2.75 1.24997L7.24925 1.2495L7.24996 0L8.74996 0ZM21.2495 8.7495H2.75V19C2.75 20.1982 3.6867 21.1777 4.8678 21.2462L5 21.25L13.2493 21.2498L13.25 17C13.25 14.9834 14.8417 13.3386 16.8374 13.2534L17 13.2499L21.2495 13.2495V8.7495ZM21.1888 14.7495L17 14.7499C15.8017 14.7499 14.8222 15.6867 14.7538 16.8677L14.75 17L14.7493 21.1898L21.1888 14.7495ZM7.24925 2.7495L2.75 2.74996V7.2495H21.2495L21.25 2.74996L16.7495 2.7495L16.7499 4H15.2499L15.2495 2.7495H8.74925L8.74996 4H7.24996L7.24925 2.7495Z" fill="#222222"/>
</svg>
