<svg width="19" height="18" viewBox="0 0 19 18" fill="none" xmlns="http://www.w3.org/2000/svg">
<path fill-rule="evenodd" clip-rule="evenodd" d="M5.16748 8.10562V5.76C5.16748 5.52375 5.36436 5.30438 5.60061 5.30438H7.01811V4.13437C7.01811 1.41187 8.4131 0.0225 11.1919 0C12.12 0 13.0031 0.118125 13.83 0.36C14.0887 0.43875 14.1844 0.59625 14.1675 0.855L13.8525 3.13875C13.83 3.24 13.7737 3.33563 13.6725 3.43688C13.5544 3.49875 13.4362 3.53812 13.3181 3.51562C12.8231 3.375 12.3169 3.31875 11.7431 3.31875C10.9556 3.31875 10.8375 3.47625 10.8375 4.29188V5.30438H13.38C13.6162 5.30438 13.8356 5.54063 13.8356 5.79938L13.6387 8.145C13.6387 8.38125 13.4419 8.54437 13.2056 8.54437H10.8375V17.5444C10.8375 17.7806 10.6406 18 10.4044 18H7.47373C7.23748 18 7.02373 17.7806 7.02373 17.5444V8.54437H5.60623C5.48987 8.54437 5.37827 8.49815 5.29599 8.41587C5.21371 8.33359 5.16748 8.22199 5.16748 8.10562" fill="#222222"/>
</svg>
