<svg width="25" height="24" viewBox="0 0 25 24" fill="none" xmlns="http://www.w3.org/2000/svg">
<g clip-path="url(#clip0_2_12324)">
<path d="M12.6673 15.25C14.1861 15.25 15.4173 16.4812 15.4173 18C15.4173 19.5188 14.1861 20.75 12.6673 20.75C11.1485 20.75 9.91733 19.5188 9.91733 18C9.91733 16.4812 11.1485 15.25 12.6673 15.25ZM12.6673 16.75C11.977 16.75 11.4173 17.3097 11.4173 18C11.4173 18.6904 11.977 19.25 12.6673 19.25C13.3577 19.25 13.9173 18.6904 13.9173 18C13.9173 17.3097 13.3577 16.75 12.6673 16.75ZM12.6674 11.2501C15.305 11.2501 17.5893 12.7629 18.6998 14.9683L17.5641 16.1028C16.8034 14.141 14.8979 12.7501 12.6674 12.7501C10.437 12.7501 8.53138 14.141 7.77072 16.1028L6.63536 14.9675C7.74604 12.7626 10.0301 11.2501 12.6674 11.2501ZM12.6675 7.2502C16.4028 7.2502 19.6932 9.15536 21.6199 12.047L20.5346 13.1325C18.9036 10.5021 15.9901 8.7502 12.6675 8.7502C9.34484 8.7502 6.43137 10.5021 4.80036 13.1325L3.71504 12.047C5.64175 9.15536 8.93213 7.2502 12.6675 7.2502ZM12.6673 3.25C17.5056 3.25 21.7998 5.57953 24.4895 9.17816L23.4166 10.2514C21.0102 6.91883 17.092 4.75 12.6673 4.75C8.24297 4.75 4.32509 6.9185 1.91856 10.2506L0.845703 9.1774C3.53543 5.5792 7.82937 3.25 12.6673 3.25Z" fill="#222222"/>
</g>
<defs>
<clipPath id="clip0_2_12324">
<rect width="24" height="24" fill="white" transform="translate(0.666992)"/>
</clipPath>
</defs>
</svg>
