<svg width="25" height="24" viewBox="0 0 25 24" fill="none" xmlns="http://www.w3.org/2000/svg">
<g clip-path="url(#clip0_2_12334)">
<path d="M18.667 19.5C19.408 19.5 20.1257 19.7633 20.6702 20.2568C20.8997 20.4638 21.2027 20.5905 21.5267 20.619L21.667 20.625V22.125L21.496 22.1205C20.8172 22.0868 20.1704 21.8213 19.6637 21.3683C19.3884 21.1266 19.0333 20.9955 18.667 21C18.2905 21 17.9335 21.1313 17.671 21.3683C17.1201 21.8596 16.4066 22.1292 15.6685 22.125C14.9298 22.1296 14.2157 21.8599 13.6645 21.3683C13.3889 21.1265 13.0336 20.9953 12.667 21C12.2897 21 11.932 21.1313 11.6702 21.3683C11.1193 21.8595 10.4059 22.1292 9.66774 22.125C8.92919 22.1297 8.21514 21.8604 7.66374 21.369C7.38847 21.1271 7.03341 20.9957 6.66699 21C6.28974 21 5.93199 21.1313 5.66949 21.3683C5.16301 21.8211 4.51656 22.0866 3.83799 22.1205L3.66699 22.125V20.625L3.80724 20.619C4.12451 20.5945 4.42517 20.4673 4.66374 20.2568C5.21473 19.7651 5.92857 19.4954 6.66699 19.5C7.40799 19.5 8.12574 19.764 8.67024 20.2568C8.93274 20.4938 9.28974 20.6243 9.66774 20.625C10.0442 20.625 10.402 20.4938 10.6637 20.256C11.2148 19.7646 11.9287 19.4952 12.667 19.5C13.408 19.5 14.1257 19.7633 14.6702 20.2568C14.9327 20.4938 15.2897 20.6243 15.6677 20.625C16.0442 20.625 16.402 20.4938 16.6637 20.2568C17.2145 19.7653 17.9281 19.4956 18.6662 19.5H18.667ZM18.667 15.75C19.408 15.75 20.1257 16.0133 20.6702 16.5068C20.8997 16.7138 21.2027 16.8405 21.5267 16.869L21.667 16.875V18.375L21.496 18.3705C20.8172 18.3368 20.1704 18.0713 19.6637 17.6183C19.3884 17.3766 19.0333 17.2455 18.667 17.25C18.2905 17.25 17.9335 17.3813 17.671 17.6183C17.1201 18.1096 16.4066 18.3792 15.6685 18.375C14.9298 18.3796 14.2157 18.1099 13.6645 17.6183C13.3889 17.3765 13.0336 17.2453 12.667 17.25C12.2897 17.25 11.932 17.3813 11.6702 17.6183C11.1193 18.1095 10.4059 18.3792 9.66774 18.375C8.92919 18.3797 8.21514 18.1104 7.66374 17.619C7.38847 17.3771 7.03341 17.2457 6.66699 17.25C6.28974 17.25 5.93199 17.3813 5.66949 17.6183C5.16301 18.0711 4.51656 18.3366 3.83799 18.3705L3.66699 18.375V16.875L3.80724 16.869C4.12451 16.8445 4.42517 16.7173 4.66374 16.5068C5.21473 16.0151 5.92857 15.7455 6.66699 15.75C7.40799 15.75 8.12574 16.014 8.67024 16.5068C8.93274 16.7438 9.28974 16.8743 9.66774 16.875C10.0442 16.875 10.402 16.7438 10.6637 16.506C11.2148 16.0146 11.9287 15.7452 12.667 15.75C13.408 15.75 14.1257 16.0133 14.6702 16.5068C14.9327 16.7438 15.2897 16.8743 15.6677 16.875C16.0442 16.875 16.402 16.7438 16.6637 16.5068C17.2145 16.0153 17.9281 15.7456 18.6662 15.75H18.667ZM15.667 2.25C16.4367 2.25 17.1769 2.54583 17.7346 3.0763C18.2923 3.60676 18.6248 4.33128 18.6632 5.1L18.667 5.25V6.75H21.667V8.25H18.667V12C19.351 12 20.0155 12.225 20.542 12.6465L20.6702 12.7568C20.8997 12.9638 21.2027 13.0905 21.5267 13.119L21.667 13.125V14.625L21.496 14.6205C20.8172 14.5868 20.1704 14.3213 19.6637 13.8683C19.3884 13.6266 19.0333 13.4955 18.667 13.5C18.2905 13.5 17.9335 13.6313 17.671 13.8683C17.1201 14.3596 16.4066 14.6292 15.6685 14.625C14.9298 14.6296 14.2157 14.3599 13.6645 13.8683C13.3889 13.6265 13.0336 13.4953 12.667 13.5C12.2897 13.5 11.932 13.6313 11.6702 13.8683C11.1193 14.3595 10.4059 14.6292 9.66774 14.625C8.92919 14.6297 8.21514 14.3604 7.66374 13.869C7.38847 13.6271 7.03341 13.4957 6.66699 13.5C6.28974 13.5 5.93199 13.6313 5.66949 13.8683C5.16301 14.3211 4.51656 14.5866 3.83799 14.6205L3.66699 14.625V13.125L3.80724 13.119C4.12451 13.0945 4.42517 12.9673 4.66374 12.7568C5.21473 12.2651 5.92857 11.9955 6.66699 12C7.40799 12 8.12574 12.264 8.67024 12.7568C8.93274 12.9938 9.28974 13.1243 9.66774 13.125C10.0442 13.125 10.402 12.9938 10.6637 12.756C11.1706 12.3029 11.8177 12.0376 12.4967 12.0045L12.667 12V8.25H3.66699V6.75H12.667V5.25C12.6687 4.86077 12.5191 4.48609 12.2497 4.20514C11.9803 3.92418 11.6123 3.75895 11.2233 3.74435C10.8343 3.72974 10.4549 3.86691 10.1652 4.12687C9.8755 4.38683 9.69819 4.74923 9.67074 5.1375L9.66699 5.25H8.16699C8.16711 4.64069 8.35276 4.04585 8.69924 3.54464C9.04572 3.04342 9.53661 2.6596 10.1066 2.44422C10.6766 2.22885 11.2986 2.19215 11.89 2.33899C12.4813 2.48583 13.014 2.80927 13.417 3.26625C13.698 2.94637 14.0441 2.69021 14.4322 2.51495C14.8202 2.33968 15.2412 2.24935 15.667 2.25ZM14.167 12.3923C14.287 12.4605 14.4017 12.5378 14.5112 12.6225L14.6702 12.7568C14.9327 12.9938 15.2897 13.1243 15.6677 13.125C15.997 13.125 16.3127 13.0245 16.561 12.84L16.6637 12.7568C16.8182 12.6165 16.987 12.4943 17.1662 12.3923V8.25H14.1662L14.167 12.3923ZM15.667 3.75C15.2886 3.74988 14.9241 3.89281 14.6466 4.15013C14.3691 4.40744 14.1991 4.76014 14.1707 5.1375L14.167 5.25V6.75H17.167V5.25C17.167 4.85218 17.009 4.47065 16.7277 4.18934C16.4463 3.90804 16.0648 3.75 15.667 3.75Z" fill="#222222"/>
</g>
<defs>
<clipPath id="clip0_2_12334">
<rect width="24" height="24" fill="white" transform="translate(0.666992)"/>
</clipPath>
</defs>
</svg>
