<svg width="25" height="24" viewBox="0 0 25 24" fill="none" xmlns="http://www.w3.org/2000/svg">
<g clip-path="url(#clip0_2_12314)">
<path d="M18.667 20.25C19.408 20.25 20.1257 20.5133 20.6702 21.0068C20.8997 21.2138 21.2027 21.3405 21.5267 21.369L21.667 21.375V22.875L21.496 22.8705C20.8172 22.8368 20.1704 22.5713 19.6637 22.1182C19.3884 21.8766 19.0333 21.7455 18.667 21.75C18.2905 21.75 17.9335 21.8812 17.671 22.1182C17.1201 22.6096 16.4066 22.8792 15.6685 22.875C14.9298 22.8796 14.2157 22.6099 13.6645 22.1182C13.3889 21.8765 13.0336 21.7453 12.667 21.75C12.2897 21.75 11.932 21.8812 11.6702 22.1182C11.1193 22.6095 10.4059 22.8792 9.66774 22.875C8.92919 22.8797 8.21514 22.6104 7.66374 22.119C7.38847 21.8771 7.03341 21.7457 6.66699 21.75C6.28974 21.75 5.93199 21.8812 5.66949 22.1182C5.16301 22.5711 4.51656 22.8366 3.83799 22.8705L3.66699 22.875V21.375L3.80724 21.369C4.12451 21.3445 4.42517 21.2173 4.66374 21.0068C5.21473 20.5151 5.92857 20.2454 6.66699 20.25C7.40799 20.25 8.12574 20.514 8.67024 21.0068C8.93274 21.2438 9.28974 21.3743 9.66774 21.375C10.0442 21.375 10.402 21.2437 10.6637 21.006C11.2148 20.5146 11.9287 20.2452 12.667 20.25C13.408 20.25 14.1257 20.5133 14.6702 21.0068C14.9327 21.2438 15.2897 21.3743 15.6677 21.375C16.0442 21.375 16.402 21.2438 16.6637 21.0068C17.2145 20.5153 17.9281 20.2456 18.6662 20.25H18.667ZM18.667 16.5C19.408 16.5 20.1257 16.7633 20.6702 17.2568C20.8997 17.4638 21.2027 17.5905 21.5267 17.619L21.667 17.625V19.125L21.496 19.1205C20.8172 19.0868 20.1704 18.8213 19.6637 18.3682C19.3884 18.1266 19.0333 17.9955 18.667 18C18.2905 18 17.9335 18.1312 17.671 18.3682C17.1201 18.8596 16.4066 19.1292 15.6685 19.125C14.9298 19.1296 14.2157 18.8599 13.6645 18.3682C13.3889 18.1265 13.0336 17.9953 12.667 18C12.2897 18 11.932 18.1312 11.6702 18.3682C11.1193 18.8595 10.4059 19.1292 9.66774 19.125C8.92919 19.1297 8.21514 18.8604 7.66374 18.369C7.38847 18.1271 7.03341 17.9957 6.66699 18C6.28974 18 5.93199 18.1312 5.66949 18.3682C5.16301 18.8211 4.51656 19.0866 3.83799 19.1205L3.66699 19.125V17.625L3.80724 17.619C4.12451 17.5945 4.42517 17.4673 4.66374 17.2568C5.21473 16.7651 5.92857 16.4954 6.66699 16.5C7.40799 16.5 8.12574 16.764 8.67024 17.2568C8.93274 17.4938 9.28974 17.6243 9.66774 17.625C10.0442 17.625 10.402 17.4937 10.6637 17.256C11.2148 16.7646 11.9287 16.4952 12.667 16.5C13.408 16.5 14.1257 16.7633 14.6702 17.2568C14.9327 17.4938 15.2897 17.6243 15.6677 17.625C16.0442 17.625 16.402 17.4938 16.6637 17.2568C17.2145 16.7653 17.9281 16.4956 18.6662 16.5H18.667ZM18.667 12.75C19.408 12.75 20.1257 13.0133 20.6702 13.5068C20.8997 13.7138 21.2027 13.8405 21.5267 13.869L21.667 13.875V15.375L21.496 15.3705C20.8172 15.3368 20.1704 15.0713 19.6637 14.6182C19.3884 14.3766 19.0333 14.2455 18.667 14.25C18.2905 14.25 17.9335 14.3812 17.671 14.6182C17.1201 15.1096 16.4066 15.3792 15.6685 15.375C14.9298 15.3796 14.2157 15.1099 13.6645 14.6182C13.3889 14.3765 13.0336 14.2453 12.667 14.25C12.2897 14.25 11.932 14.3812 11.6702 14.6182C11.1193 15.1095 10.4059 15.3792 9.66774 15.375C8.92919 15.3797 8.21514 15.1104 7.66374 14.619C7.38847 14.3771 7.03341 14.2457 6.66699 14.25C6.28974 14.25 5.93199 14.3812 5.66949 14.6182C5.16301 15.0711 4.51656 15.3366 3.83799 15.3705L3.66699 15.375V13.875L3.80724 13.869C4.12451 13.8445 4.42517 13.7173 4.66374 13.5068C5.21473 13.0151 5.92857 12.7454 6.66699 12.75C7.40799 12.75 8.12574 13.014 8.67024 13.5068C8.93274 13.7438 9.28974 13.8743 9.66774 13.875C10.0442 13.875 10.402 13.7437 10.6637 13.506C11.2148 13.0146 11.9287 12.7452 12.667 12.75C13.408 12.75 14.1257 13.0133 14.6702 13.5068C14.9327 13.7438 15.2897 13.8743 15.6677 13.875C16.0442 13.875 16.402 13.7438 16.6637 13.5068C17.2145 13.0153 17.9281 12.7456 18.6662 12.75H18.667ZM12.667 0.75C13.6857 0.749801 14.6912 0.980166 15.6082 1.42383C16.5251 1.86749 17.3298 2.51295 17.9619 3.31182C18.5939 4.1107 19.037 5.04226 19.2578 6.03671C19.4786 7.03116 19.4715 8.06269 19.237 9.054C19.7695 9.15225 20.2675 9.3915 20.6702 9.75675C20.8997 9.96375 21.2027 10.0905 21.5267 10.119L21.667 10.125V11.625L21.496 11.6205C20.8172 11.5868 20.1704 11.3213 19.6637 10.8682C19.4252 10.6576 19.1245 10.5304 18.8072 10.506L18.6985 10.5008H18.6355C18.3256 10.5039 18.0243 10.603 17.773 10.7843L17.6702 10.8682C17.1194 11.3596 16.4059 11.6292 15.6677 11.625C14.9291 11.6296 14.215 11.3599 13.6637 10.8682C13.3884 10.6266 13.0333 10.4955 12.667 10.5C12.2897 10.5 11.932 10.6313 11.6702 10.8682C11.1193 11.3595 10.4059 11.6292 9.66774 11.625C8.92919 11.6297 8.21514 11.3604 7.66374 10.869C7.42533 10.6581 7.12463 10.5306 6.80724 10.506L6.69849 10.5008H6.63549C6.32563 10.504 6.02435 10.603 5.77299 10.7843L5.67024 10.8682C5.16356 11.3213 4.51683 11.5868 3.83799 11.6205L3.66699 11.625V10.125L3.80724 10.119C4.12451 10.0945 4.42517 9.96733 4.66374 9.75675C5.06707 9.39425 5.56288 9.1505 6.09624 9.0525C5.86197 8.06123 5.85507 7.0298 6.07607 6.03549C6.29706 5.04117 6.74022 4.10977 7.37233 3.31106C8.00444 2.51236 8.80911 1.86706 9.72605 1.42353C10.643 0.980004 11.6484 0.749742 12.667 0.75ZM12.667 2.25C11.8335 2.24972 11.012 2.44787 10.2703 2.82806C9.52862 3.20826 8.88811 3.75958 8.40176 4.43641C7.9154 5.11325 7.59718 5.89615 7.47341 6.72037C7.34964 7.54458 7.42388 8.38642 7.68999 9.17625C8.05149 9.30225 8.38449 9.498 8.67024 9.75675C8.93274 9.99375 9.28974 10.1243 9.66774 10.125C10.0442 10.125 10.402 9.99375 10.6637 9.756C11.2148 9.26457 11.9287 8.99517 12.667 9C13.408 9 14.1257 9.26325 14.6702 9.75675C14.9327 9.99375 15.2897 10.1243 15.6677 10.125C15.997 10.125 16.3127 10.0245 16.561 9.84L16.6637 9.75675C16.9487 9.498 17.2825 9.30225 17.6417 9.17475C17.9075 8.38519 17.9815 7.54371 17.8577 6.71988C17.734 5.89604 17.4159 5.11348 16.9298 4.43689C16.4438 3.7603 15.8036 3.20909 15.0624 2.82883C14.3212 2.44856 13.5001 2.25015 12.667 2.25Z" fill="#222222"/>
</g>
<defs>
<clipPath id="clip0_2_12314">
<rect width="24" height="24" fill="white" transform="translate(0.666992)"/>
</clipPath>
</defs>
</svg>
