<svg width="25" height="24" viewBox="0 0 25 24" fill="none" xmlns="http://www.w3.org/2000/svg">
<g clip-path="url(#clip0_2_12344)">
<path d="M20.3827 1.5C21.5034 1.50164 22.4521 2.32783 22.6075 3.43792C22.9806 6.10873 23.167 8.96273 23.167 12C23.167 15.0373 22.9806 17.8913 22.6074 20.5623C22.4583 21.6278 21.578 22.4318 20.5153 22.4959L20.3816 22.5H4.9513C3.83056 22.4984 2.88192 21.6722 2.72653 20.5621C2.35336 17.8913 2.16699 15.0373 2.16699 12C2.16699 8.96273 2.35336 6.10873 2.72656 3.43773C2.8757 2.37223 3.75594 1.56819 4.81864 1.50412L4.95239 1.5H20.3827ZM20.3816 3H4.95349C4.57995 3.00055 4.26384 3.27586 4.2121 3.64549C3.84884 6.24532 3.66699 9.03019 3.66699 12C3.66699 14.9698 3.84884 17.7547 4.21207 20.3543C4.25986 20.6957 4.53288 20.9565 4.86754 20.9951L4.95239 21H20.3805C20.754 20.9995 21.0701 20.7241 21.1219 20.3545C21.4851 17.7547 21.667 14.9698 21.667 12C21.667 9.03019 21.4851 6.24532 21.1219 3.64567C21.0701 3.27586 20.754 3.00055 20.3816 3ZM12.667 5.25C16.3949 5.25 19.417 8.27208 19.417 12C19.417 15.7279 16.3949 18.75 12.667 18.75C8.93907 18.75 5.91699 15.7279 5.91699 12C5.91699 8.27208 8.93907 5.25 12.667 5.25ZM8.28588 10.875C8.03006 10.8749 7.77608 10.8932 7.5257 10.9294C7.45459 11.2754 7.41699 11.6333 7.41699 12C7.41699 14.8995 9.7675 17.25 12.667 17.25C14.716 17.25 16.4908 16.0762 17.3557 14.3644C17.1608 14.3812 16.9646 14.3896 16.7676 14.3895C15.0711 14.3887 13.4348 13.7561 12.1738 12.5836L11.9962 12.4124C10.9985 11.4141 9.66984 10.875 8.28588 10.875ZM12.667 6.75C10.7227 6.75 9.02518 7.80697 8.11781 9.37767L8.28624 9.375C9.98309 9.375 11.6196 10.0077 12.8795 11.1805L13.0569 11.3518C14.0555 12.3497 15.3845 12.8888 16.7684 12.8895C17.1377 12.8897 17.5033 12.8514 17.8599 12.7761C17.8976 12.5219 17.917 12.2632 17.917 12C17.917 9.1005 15.5665 6.75 12.667 6.75ZM5.91699 4.5C6.33121 4.5 6.66699 4.83579 6.66699 5.25C6.66699 5.66421 6.33121 6 5.91699 6C5.50278 6 5.16699 5.66421 5.16699 5.25C5.16699 4.83579 5.50278 4.5 5.91699 4.5Z" fill="#222222"/>
</g>
<defs>
<clipPath id="clip0_2_12344">
<rect width="24" height="24" fill="white" transform="translate(0.666992)"/>
</clipPath>
</defs>
</svg>
