<svg width="24" height="24" viewBox="0 0 24 24" fill="none" xmlns="http://www.w3.org/2000/svg">
<path d="M1.5375 4.719L3 6.1815V18.75C2.99997 19.3239 3.21924 19.8761 3.61296 20.2937C4.00668 20.7113 4.54508 20.9626 5.118 20.9963L5.25 21H17.8177L19.2803 22.4625C19.1595 22.4797 19.0365 22.491 18.9128 22.4963L18.75 22.5H5.25C4.28365 22.4999 3.35463 22.1268 2.65667 21.4585C1.95871 20.7902 1.54569 19.8782 1.50375 18.9128L1.5 18.75V5.25C1.5 5.07 1.51275 4.89225 1.5375 4.719ZM2.78025 1.719L22.2803 21.219L21.2197 22.2803L1.71975 2.78025L2.78025 1.71975V1.719ZM18.75 1.5C19.7163 1.50006 20.6454 1.87316 21.3433 2.54149C22.0413 3.20983 22.4543 4.12181 22.4963 5.08725L22.5 5.25V18.75C22.5 18.93 22.4873 19.107 22.4625 19.2803L21 17.8177V5.25C21 4.67609 20.7808 4.12386 20.387 3.7063C19.9933 3.28874 19.4549 3.03742 18.882 3.00375L18.75 3H6.1815L4.719 1.5375C4.8405 1.52025 4.96275 1.509 5.08725 1.50375L5.25 1.5H18.75ZM8.325 12.75C8.47252 13.4704 8.82836 14.1317 9.34835 14.6517C9.86833 15.1716 10.5296 15.5275 11.25 15.675V17.1975C10.1282 17.0351 9.08905 16.5142 8.28762 15.7126C7.4862 14.9111 6.9655 13.8718 6.80325 12.75H8.32575H8.325ZM12.75 15.9323L13.764 16.9462C13.4355 17.0634 13.096 17.1473 12.7507 17.1968L12.75 15.9323ZM15.9323 12.75L17.1968 12.7507C17.1465 13.101 17.0617 13.44 16.9462 13.764L15.9323 12.75ZM12.7507 6.80325C13.8723 6.9658 14.9112 7.48663 15.7125 8.28803C16.5137 9.08943 17.0344 10.1284 17.1968 11.25H15.675C15.5275 10.5296 15.1716 9.86833 14.6517 9.34835C14.1317 8.82836 13.4704 8.47252 12.75 8.325L12.7507 6.80325ZM7.05375 10.236L8.06775 11.25H6.80325C6.8535 10.8997 6.93825 10.56 7.05375 10.236ZM11.25 6.80325L11.2492 8.06775L10.2367 7.05375C10.5652 6.93632 10.9047 6.85215 11.25 6.8025V6.80325ZM17.25 6C17.4489 6 17.6397 6.07902 17.7803 6.21967C17.921 6.36032 18 6.55109 18 6.75C18 6.94891 17.921 7.13968 17.7803 7.28033C17.6397 7.42098 17.4489 7.5 17.25 7.5C17.0511 7.5 16.8603 7.42098 16.7197 7.28033C16.579 7.13968 16.5 6.94891 16.5 6.75C16.5 6.55109 16.579 6.36032 16.7197 6.21967C16.8603 6.07902 17.0511 6 17.25 6Z" fill="#B0B0B0"/>
</svg>
