<svg width="25" height="24" viewBox="0 0 25 24" fill="none" xmlns="http://www.w3.org/2000/svg">
<g clip-path="url(#clip0_2_12354)">
<path d="M3.28149 5.79526L4.36674 6.88126C3.41613 8.41917 2.91401 10.192 2.91699 12C2.91699 17.385 7.28199 21.75 12.667 21.75C14.5442 21.75 16.297 21.2198 17.785 20.3003L18.871 21.3863C17.0318 22.6052 14.8735 23.2536 12.667 23.25C6.45399 23.25 1.41699 18.213 1.41699 12C1.41699 9.70726 2.10324 7.57426 3.28149 5.79526ZM3.44724 1.71976L22.9472 21.2198L21.8867 22.2803L2.38674 2.78026L3.44724 1.71976ZM12.667 0.750014C18.88 0.750014 23.917 5.78701 23.917 12C23.917 14.2928 23.2315 16.425 22.0532 18.204L20.9672 17.118C21.9177 15.5803 22.4198 13.8077 22.417 12C22.417 6.61501 18.052 2.25001 12.667 2.25001C10.859 2.24703 9.08614 2.74915 7.54824 3.69976L6.46224 2.61451C8.30158 1.39518 10.4602 0.746522 12.667 0.750014ZM8.99199 12.75C9.13951 13.4704 9.49535 14.1317 10.0153 14.6517C10.5353 15.1717 11.1966 15.5275 11.917 15.675V17.1975C10.7952 17.0351 9.75604 16.5142 8.95462 15.7126C8.15319 14.9111 7.63249 13.8718 7.47024 12.75H8.99274H8.99199ZM13.417 15.9323L14.431 16.9463C14.1025 17.0634 13.763 17.1474 13.4177 17.1968L13.417 15.9323ZM16.5992 12.75L17.8637 12.7508C17.8135 13.101 17.7287 13.44 17.6132 13.764L16.5992 12.75ZM13.4177 6.80326C14.5393 6.96581 15.5782 7.48664 16.3795 8.28804C17.1807 9.08944 17.7014 10.1284 17.8637 11.25H16.342C16.1945 10.5296 15.8386 9.86835 15.3186 9.34836C14.7987 8.82837 14.1374 8.47254 13.417 8.32501L13.4177 6.80326ZM7.72074 10.236L8.73474 11.25H7.47024C7.52049 10.8998 7.60524 10.56 7.72074 10.236ZM11.917 6.80326L11.9162 8.06776L10.9037 7.05376C11.2322 6.93634 11.5717 6.85217 11.917 6.80251V6.80326ZM17.917 6.00001C18.1159 6.00001 18.3067 6.07903 18.4473 6.21968C18.588 6.36034 18.667 6.5511 18.667 6.75001C18.667 6.94893 18.588 7.13969 18.4473 7.28034C18.3067 7.421 18.1159 7.50001 17.917 7.50001C17.7181 7.50001 17.5273 7.421 17.3867 7.28034C17.246 7.13969 17.167 6.94893 17.167 6.75001C17.167 6.5511 17.246 6.36034 17.3867 6.21968C17.5273 6.07903 17.7181 6.00001 17.917 6.00001Z" fill="#B0B0B0"/>
</g>
<defs>
<clipPath id="clip0_2_12354">
<rect width="24" height="24" fill="white" transform="translate(0.666992)"/>
</clipPath>
</defs>
</svg>
