<svg width="19" height="18" viewBox="0 0 19 18" fill="none" xmlns="http://www.w3.org/2000/svg">
<path fill-rule="evenodd" clip-rule="evenodd" d="M17.985 0.6825C17.5275 0.225 16.9875 0 16.3575 0H2.97748C2.33998 0 1.79998 0.225 1.34998 0.6825C0.89998 1.14 0.66748 1.68 0.66748 2.31V15.69C0.66748 16.3275 0.89248 16.8675 1.34998 17.3175C1.80748 17.7675 2.34748 18 2.97748 18H16.3575C16.995 18 17.535 17.775 17.985 17.3175C18.435 16.86 18.6675 16.32 18.6675 15.69V2.31C18.6675 1.6725 18.4425 1.1325 17.985 0.6825ZM7.12498 6.4875C7.82998 5.805 8.68498 5.46 9.67498 5.46C10.6725 5.46 11.5275 5.805 12.2325 6.4875C12.9375 7.17 13.29 7.995 13.29 8.9625C13.29 9.93 12.9375 10.755 12.2325 11.4375C11.5275 12.12 10.6725 12.465 9.67498 12.465C8.68498 12.465 7.82998 12.12 7.12498 11.4375C6.41998 10.755 6.06748 9.93 6.06748 8.9625C6.06748 7.995 6.41998 7.17 7.12498 6.4875ZM16.62 15.21C16.62 15.4125 16.5525 15.585 16.41 15.72C16.3449 15.7873 16.2667 15.8406 16.1803 15.8767C16.0939 15.9128 16.0011 15.9309 15.9075 15.93H3.38248C3.28766 15.9315 3.19353 15.9137 3.10584 15.8776C3.01815 15.8414 2.93875 15.7878 2.87248 15.72C2.80564 15.6534 2.75318 15.5737 2.71835 15.486C2.68352 15.3983 2.66706 15.3043 2.66998 15.21V7.6125H4.31998C4.16365 8.10994 4.08522 8.62858 4.08748 9.15C4.08748 10.65 4.63498 11.9325 5.72998 12.99C6.82498 14.0475 8.13748 14.58 9.68248 14.58C10.6675 14.5879 11.6374 14.3371 12.495 13.8525C13.3367 13.386 14.0404 12.7056 14.535 11.88C15.0314 11.0591 15.291 10.1168 15.285 9.1575C15.285 8.625 15.2025 8.115 15.0525 7.62H16.635V15.21H16.62ZM16.62 4.7475C16.62 4.9725 16.5375 5.1675 16.3875 5.325C16.3121 5.40097 16.222 5.46076 16.1227 5.50074C16.0234 5.54071 15.917 5.56003 15.81 5.5575H13.77C13.545 5.5575 13.35 5.475 13.1925 5.325C13.1165 5.24959 13.0567 5.15949 13.0167 5.0602C12.9768 4.96091 12.9575 4.85451 12.96 4.7475V2.8125C12.96 2.595 13.0425 2.4075 13.1925 2.2425C13.3425 2.0775 13.545 2.0025 13.77 2.0025H15.81C16.035 2.0025 16.23 2.085 16.3875 2.2425C16.545 2.4 16.62 2.595 16.62 2.8125V4.7475Z" fill="#222222"/>
</svg>
