<svg width="24" height="24" viewBox="0 0 24 24" fill="none" xmlns="http://www.w3.org/2000/svg">
<path d="M12.6328 20.3671L12.6328 17.8183L12.4372 17.8868C11.6979 18.1279 10.9144 18.2705 10.1026 18.2992L9.79687 18.3046L9.57728 18.3019C5.05301 18.1872 1.40646 14.5408 1.29184 10.0165L1.28906 9.79687L1.29184 9.57728C1.40646 5.05301 5.05301 1.40646 9.57728 1.29184L9.79687 1.28906L10.0165 1.29184C14.5408 1.40646 18.1872 5.05301 18.3019 9.57728L18.3046 9.79687L18.2997 10.0903C18.2633 11.1618 18.0285 12.1841 17.6306 13.1208L17.5311 13.3431L23.4609 19.2733V23.4609H19.2733L16.1796 20.3668L12.6328 20.3671ZM7.73437 5.41406C9.01586 5.41406 10.0547 6.4529 10.0547 7.73437C10.0547 9.01586 9.01586 10.0547 7.73437 10.0547C6.4529 10.0547 5.41406 9.01586 5.41406 7.73437C5.41406 6.4529 6.4529 5.41406 7.73437 5.41406ZM7.73437 6.96094C7.30721 6.96094 6.96094 7.30721 6.96094 7.73437C6.96094 8.16154 7.30721 8.50781 7.73437 8.50781C8.16154 8.50781 8.50781 8.16154 8.50781 7.73437C8.50781 7.30721 8.16154 6.96094 7.73437 6.96094ZM16.8204 18.8203L19.9138 21.9141H21.9141V19.9138L15.6343 13.6344L15.9116 13.1263L16.0319 12.8957C16.4576 12.0409 16.7129 11.086 16.7524 10.0742L16.7578 9.79687L16.755 9.59522C16.6502 5.91105 13.6827 2.94361 9.99853 2.8388L9.79687 2.83594L9.59522 2.8388C5.91105 2.94361 2.94361 5.91105 2.8388 9.59522L2.83594 9.79687L2.8388 9.99853C2.94551 13.7497 6.0199 16.7578 9.79687 16.7578C10.8811 16.7578 11.9056 16.5105 12.8189 16.0696L13.0448 15.9553L14.1796 15.3555L14.1793 18.8203L16.8204 18.8203Z" fill="#222222"/>
</svg>
