<svg width="17" height="16" viewBox="0 0 17 16" fill="none" xmlns="http://www.w3.org/2000/svg">
<g clip-path="url(#clip0_2_6310)">
<path d="M8.6895 0.25C10.7475 0.255827 12.719 1.07784 14.1716 2.53567C15.6242 3.99349 16.4391 5.96804 16.4375 8.026C16.4306 10.0372 15.6421 11.9669 14.2387 13.4074C12.8353 14.848 10.9268 15.6866 8.9165 15.746L8.6705 15.75C6.65894 15.7457 4.72785 14.9595 3.28536 13.5575C1.84287 12.1556 1.00201 10.2476 0.9405 8.237L0.9375 7.992C0.939621 5.93761 1.75735 3.96812 3.21096 2.51639C4.66457 1.06465 6.63511 0.249469 8.6895 0.25ZM10.6385 8.75H6.7355C6.8905 11.647 7.9115 14.093 8.6215 14.243L8.6895 14.25C9.3695 14.248 10.4095 11.885 10.6215 9.02L10.6385 8.75ZM14.8935 8.75H12.1415C12.0505 10.71 11.6115 12.533 10.9535 13.826C11.9684 13.4306 12.8625 12.7771 13.5474 11.9302C14.2323 11.0832 14.6842 10.0722 14.8585 8.997L14.8935 8.75ZM5.2325 8.75H2.4825C2.61852 9.87243 3.05614 10.937 3.74884 11.8306C4.44154 12.7242 5.36342 13.4134 6.4165 13.825C5.8015 12.617 5.3805 10.95 5.2545 9.139L5.2325 8.749V8.75ZM6.4205 2.174L6.3055 2.22C5.27929 2.64383 4.38435 3.33309 3.71251 4.21704C3.04068 5.10099 2.61615 6.14779 2.4825 7.25H5.2325C5.3175 5.42 5.7035 3.71 6.2915 2.44L6.4205 2.174ZM8.6825 1.75C7.9805 1.752 6.8985 4.262 6.7355 7.25H10.6395C10.4835 4.347 9.4615 1.907 8.7475 1.756L8.6825 1.749V1.75ZM10.9625 2.182L10.9855 2.232C11.6285 3.52 12.0545 5.316 12.1425 7.25H14.8905C14.7519 6.13 14.3137 5.06812 13.6223 4.17621C12.9308 3.2843 12.0116 2.59538 10.9615 2.182H10.9625Z" fill="#222222"/>
</g>
<defs>
<clipPath id="clip0_2_6310">
<rect width="16" height="16" fill="white" transform="translate(0.6875)"/>
</clipPath>
</defs>
</svg>
