<svg width="72" height="auto" viewBox="0 0 72 22" fill="none" xmlns="http://www.w3.org/2000/svg">
  <path
    d="M20.7433 15.6132C20.642 15.3363 20.5237 15.0684 20.4111 14.8201C20.2377 14.4383 20.0562 14.0557 19.8805 13.6859L19.8666 13.6565C18.3004 10.353 16.6192 7.00432 14.87 3.70357L14.7958 3.56342C14.6173 3.22636 14.4329 2.87785 14.2436 2.5354C14.0191 2.10203 13.7467 1.69373 13.4312 1.31772C13.0761 0.905101 12.6322 0.573253 12.1308 0.345575C11.6294 0.117897 11.0827 -6.76472e-05 10.5293 2.9103e-08C9.97588 6.77054e-05 9.42925 0.118165 8.92786 0.345967C8.42654 0.573768 7.98268 0.905726 7.62769 1.31843C7.31259 1.69452 7.04035 2.10274 6.8158 2.5359C6.62485 2.88142 6.43867 3.23316 6.25864 3.57333L6.18968 3.70354C4.44043 7.00453 2.75932 10.3532 1.19305 13.6564L1.17023 13.7045C0.997652 14.0683 0.819226 14.4445 0.648757 14.82C0.536111 15.068 0.417889 15.3357 0.316486 15.6133C0.0260515 16.3697 -0.0664969 17.1843 0.0471599 17.984C0.167691 18.7921 0.5033 19.5557 1.02075 20.199C1.5382 20.8423 2.21953 21.343 2.99728 21.6516C3.58472 21.8831 4.21283 22.0014 4.8467 22C5.04582 21.9999 5.24476 21.9887 5.44254 21.9662C6.24424 21.8668 7.01743 21.6127 7.71678 21.2189C8.63414 20.717 9.54014 19.9814 10.5299 18.9302C11.5196 19.9814 12.4256 20.717 13.3429 21.2189C14.0423 21.6127 14.8155 21.8668 15.6172 21.9662C15.8149 21.9887 16.0139 21.9999 16.2131 22C16.8469 22.0014 17.4749 21.8831 18.0623 21.6516C18.8401 21.343 19.5215 20.8423 20.0389 20.199C20.5564 19.5557 20.8921 18.7922 21.0126 17.984C21.1261 17.1842 21.0336 16.3696 20.7433 15.6132ZM10.5299 16.7592C9.30466 15.2466 8.51845 13.842 8.24259 12.6644C8.12958 12.2232 8.10289 11.7653 8.16395 11.3144C8.21216 10.9839 8.33682 10.6684 8.52854 10.3914C8.76445 10.0935 9.06762 9.85215 9.41464 9.68612C9.76165 9.52016 10.1432 9.43381 10.53 9.43381C10.9168 9.43388 11.2984 9.52023 11.6454 9.68633C11.9924 9.85236 12.2955 10.0937 12.5314 10.3916C12.7231 10.6687 12.8478 10.9843 12.896 11.3148C12.9569 11.7659 12.9301 12.224 12.8169 12.6653C12.5408 13.8427 11.7548 15.247 10.5299 16.7592ZM19.5816 17.7849C19.4973 18.3499 19.2626 18.8838 18.9008 19.3336C18.539 19.7834 18.0626 20.1336 17.5188 20.3493C16.9689 20.5639 16.3722 20.6399 15.784 20.5703C15.1727 20.4936 14.5835 20.2977 14.0519 19.9942C13.2354 19.5473 12.4088 18.8614 11.4786 17.8552C12.9594 16.0769 13.884 14.4378 14.2264 12.9779C14.3804 12.364 14.4138 11.7273 14.3248 11.1014C14.2441 10.5622 14.0385 10.0478 13.7237 9.59702C13.3549 9.11068 12.8737 8.7153 12.3191 8.44284C11.7643 8.17039 11.1515 8.02842 10.53 8.02842C9.90854 8.02842 9.29569 8.17032 8.74094 8.44271C8.18619 8.71509 7.70506 9.11041 7.33624 9.59674C7.02146 10.0474 6.81594 10.5617 6.73511 11.1007C6.64605 11.7264 6.67927 12.3628 6.83302 12.9765C7.17515 14.437 8.09986 16.0765 9.58108 17.8553C8.65094 18.8614 7.82435 19.5473 7.00778 19.9942C6.47624 20.2977 5.88711 20.4937 5.27573 20.5703C4.68752 20.6399 4.09076 20.5639 3.54085 20.3493C2.99704 20.1336 2.52065 19.7834 2.15886 19.3337C1.79707 18.8838 1.56244 18.3499 1.4782 17.7849C1.39717 17.2105 1.46612 16.6255 1.67872 16.0838C1.75952 15.8626 1.85409 15.6454 1.97125 15.3875C2.13699 15.0226 2.31287 14.6517 2.483 14.293L2.50585 14.2448C4.06336 10.9601 5.73516 7.63001 7.47487 4.34702L7.54412 4.21632C7.72122 3.88163 7.9044 3.53559 8.0892 3.20121C8.26595 2.85657 8.47991 2.53118 8.72746 2.23053C8.94678 1.97246 9.22207 1.76468 9.53358 1.62205C9.84515 1.4794 10.1852 1.40543 10.5296 1.4054C10.8739 1.40537 11.2141 1.4793 11.5256 1.62189C11.8372 1.76448 12.1124 1.97221 12.3318 2.23024C12.5795 2.53067 12.7936 2.85595 12.9702 3.20057C13.1533 3.53198 13.3348 3.87491 13.5104 4.20652L13.5848 4.34717C15.3245 7.62981 16.9962 10.9598 18.5539 14.2451L18.568 14.2746C18.741 14.6394 18.92 15.0163 19.0885 15.3876C19.2058 15.6459 19.3005 15.8632 19.3811 16.0837C19.5936 16.6254 19.6626 17.2104 19.5816 17.7849Z"
    fill="#FF385C"
  />
  <path
    d="M29.424 16.5821C28.8599 16.5821 28.341 16.472 27.8671 16.2518C27.3933 16.0316 26.9872 15.7232 26.6262 15.3268C26.2652 14.9305 25.9945 14.468 25.7914 13.9615C25.5883 13.4329 25.498 12.8604 25.498 12.2438C25.498 11.6272 25.6109 11.0325 25.8139 10.504C26.017 9.9755 26.3103 9.51302 26.6714 9.09461C27.0324 8.6982 27.461 8.36785 27.9574 8.14765C28.4538 7.92744 28.9728 7.8173 29.5593 7.8173C30.1234 7.8173 30.6198 7.92744 31.0711 8.16965C31.5223 8.38992 31.8833 8.7202 32.1766 9.13861L32.2443 8.05958H34.3201V16.3618H32.2443L32.1766 15.1507C31.8833 15.5911 31.4997 15.9434 31.0034 16.2077C30.5521 16.45 30.0106 16.5821 29.424 16.5821ZM29.9655 14.6001C30.3716 14.6001 30.7326 14.49 31.0711 14.2918C31.3869 14.0716 31.6351 13.7853 31.8382 13.4329C32.0187 13.0806 32.1089 12.6622 32.1089 12.1997C32.1089 11.7372 32.0187 11.3188 31.8382 10.9665C31.6577 10.6141 31.3869 10.3278 31.0711 10.1076C30.7552 9.88737 30.3716 9.7993 29.9655 9.7993C29.5593 9.7993 29.1984 9.90943 28.8599 10.1076C28.5441 10.3278 28.2959 10.6141 28.0928 10.9665C27.9123 11.3188 27.822 11.7372 27.822 12.1997C27.822 12.6622 27.9123 13.0806 28.0928 13.4329C28.2733 13.7853 28.5441 14.0716 28.8599 14.2918C29.1984 14.49 29.5593 14.6001 29.9655 14.6001ZM37.8624 5.81331C37.8624 6.05555 37.8173 6.27578 37.7044 6.45195C37.5916 6.62813 37.4337 6.78228 37.2307 6.89241C37.0276 7.00248 36.802 7.04655 36.5764 7.04655C36.3507 7.04655 36.1251 7.00248 35.922 6.89241C35.7189 6.78228 35.561 6.62813 35.4482 6.45195C35.3354 6.25375 35.2903 6.05555 35.2903 5.81331C35.2903 5.57107 35.3354 5.35085 35.4482 5.17467C35.561 4.97647 35.7189 4.84434 35.922 4.73423C36.1251 4.62412 36.3507 4.58008 36.5764 4.58008C36.802 4.58008 37.0276 4.62412 37.2307 4.73423C37.4337 4.84434 37.5916 4.9985 37.7044 5.17467C37.7947 5.35085 37.8624 5.54905 37.8624 5.81331ZM35.4482 16.3398V8.03751H37.7044V16.3398H35.4482ZM43.7287 10.2177V10.2397C43.6159 10.1957 43.4805 10.1736 43.3677 10.1516C43.2324 10.1296 43.1195 10.1296 42.9842 10.1296C42.3524 10.1296 41.8785 10.3058 41.5627 10.6802C41.2243 11.0545 41.0663 11.5831 41.0663 12.2658V16.3398H38.8101V8.03751H40.8858L40.9535 9.29282C41.1792 8.85233 41.4499 8.52199 41.8334 8.27978C42.1944 8.03751 42.6231 7.92744 43.1195 7.92744C43.2775 7.92744 43.4354 7.94944 43.5708 7.97144C43.6384 7.99351 43.6836 7.99351 43.7287 8.01551V10.2177ZM44.6312 16.3398V4.62412H46.8875V9.09461C47.2034 8.6982 47.5644 8.38985 48.0156 8.14765C48.4669 7.92744 48.9633 7.7953 49.5273 7.7953C50.0913 7.7953 50.6103 7.90537 51.0841 8.12565C51.558 8.34585 51.964 8.65413 52.3251 9.05054C52.6861 9.44695 52.9568 9.90943 53.1599 10.4159C53.363 10.9445 53.4532 11.517 53.4532 12.1336C53.4532 12.7503 53.3404 13.3449 53.1374 13.8734C52.9343 14.4019 52.641 14.8644 52.2799 15.2828C51.9189 15.6792 51.4903 16.0095 50.9939 16.2298C50.4975 16.45 49.9785 16.56 49.392 16.56C48.8279 16.56 48.3315 16.45 47.8802 16.2077C47.429 15.9875 47.068 15.6571 46.7747 15.2387L46.707 16.3178L44.6312 16.3398ZM48.9858 14.6001C49.392 14.6001 49.7529 14.49 50.0913 14.2918C50.4072 14.0716 50.6554 13.7853 50.8585 13.4329C51.039 13.0806 51.1293 12.6622 51.1293 12.1997C51.1293 11.7372 51.039 11.3188 50.8585 10.9665C50.6554 10.6141 50.4072 10.3278 50.0913 10.1076C49.7755 9.88737 49.392 9.7993 48.9858 9.7993C48.5797 9.7993 48.2187 9.90943 47.8802 10.1076C47.5644 10.3278 47.3162 10.6141 47.1131 10.9665C46.9326 11.3188 46.8424 11.7372 46.8424 12.1997C46.8424 12.6622 46.9326 13.0806 47.1131 13.4329C47.2936 13.7853 47.5644 14.0716 47.8802 14.2918C48.2187 14.49 48.5797 14.6001 48.9858 14.6001ZM54.3106 16.3398V8.03751H56.3863L56.454 9.11661C56.7022 8.7202 57.0407 8.41192 57.4694 8.16965C57.898 7.92744 58.3944 7.8173 58.9585 7.8173C59.5903 7.8173 60.1317 7.97144 60.583 8.25778C61.0568 8.54406 61.4179 8.96247 61.666 9.49102C61.9142 10.0195 62.0495 10.6581 62.0495 11.3849V16.3618H59.7933V11.6712C59.7933 11.0986 59.658 10.6361 59.3872 10.3058C59.1165 9.9755 58.7554 9.7993 58.2816 9.7993C57.9432 9.7993 57.6499 9.86537 57.3791 10.0195C57.1309 10.1736 56.9279 10.3718 56.7699 10.6582C56.612 10.9224 56.5443 11.2527 56.5443 11.5831V16.3398H54.3106ZM63.1777 16.3398V4.62412H65.434V9.09461C65.7499 8.6982 66.1108 8.38985 66.5621 8.14765C67.0134 7.92744 67.5098 7.7953 68.0738 7.7953C68.6379 7.7953 69.1568 7.90537 69.6307 8.12565C70.1045 8.34585 70.5105 8.65413 70.8715 9.05054C71.2329 9.44695 71.5032 9.90943 71.7065 10.4159C71.9098 10.9445 71.9995 11.517 71.9995 12.1336C71.9995 12.7503 71.8872 13.3449 71.6839 13.8734C71.4806 14.4019 71.1877 14.8644 70.8263 15.2828C70.4654 15.6792 70.0368 16.0095 69.5404 16.2298C69.044 16.45 68.525 16.56 67.9384 16.56C67.3744 16.56 66.878 16.45 66.4267 16.2077C65.9755 15.9875 65.6145 15.6571 65.3212 15.2387L65.2535 16.3178L63.1777 16.3398ZM67.5549 14.6001C67.961 14.6001 68.322 14.49 68.6604 14.2918C68.9763 14.0716 69.2245 13.7853 69.4276 13.4329C69.6081 13.0806 69.6984 12.6622 69.6984 12.1997C69.6984 11.7372 69.6081 11.3188 69.4276 10.9665C69.2471 10.6141 68.9763 10.3278 68.6604 10.1076C68.3445 9.88737 67.961 9.7993 67.5549 9.7993C67.1487 9.7993 66.7877 9.90943 66.4493 10.1076C66.1334 10.3278 65.8852 10.6141 65.6822 10.9665C65.4791 11.3188 65.4114 11.7372 65.4114 12.1997C65.4114 12.6622 65.5017 13.0806 65.6822 13.4329C65.8627 13.7853 66.1334 14.0716 66.4493 14.2918C66.7877 14.49 67.1262 14.6001 67.5549 14.6001Z"
    fill="#FF385C"
  />
</svg>
