<svg width="24" height="24" viewBox="0 0 24 24" fill="none" xmlns="http://www.w3.org/2000/svg">
<path d="M12 12.75C14.8995 12.75 17.25 15.1005 17.25 18C17.25 20.8995 14.8995 23.25 12 23.25C9.1005 23.25 6.75 20.8995 6.75 18C6.75 15.1005 9.1005 12.75 12 12.75ZM12 14.25C9.92893 14.25 8.25 15.9289 8.25 18C8.25 20.0711 9.92893 21.75 12 21.75C14.0711 21.75 15.75 20.0711 15.75 18C15.75 15.9289 14.0711 14.25 12 14.25ZM19.25 0.25C20.0408 0.25 20.6886 0.861908 20.7459 1.63805L20.75 1.75V6.53648C20.75 7.06405 20.4732 7.54958 20.0268 7.81969L19.9208 7.87812L12.6708 11.5031C12.2908 11.6931 11.8501 11.7121 11.458 11.5601L11.3292 11.5031L4.07918 7.87812C3.6073 7.64218 3.29681 7.17748 3.25486 6.6574L3.25 6.53648V1.75C3.25 0.959229 3.86191 0.311376 4.63805 0.254114L4.75 0.25H19.25ZM19.25 1.75H4.75V6.53648L12 10.1615L19.25 6.53648V1.75Z" fill="#222222"/>
</svg>
