<svg width="9" height="10" viewBox="0 0 9 10" fill="none" xmlns="http://www.w3.org/2000/svg">
<g clip-path="url(#clip0_1_34)">
<path fill-rule="evenodd" clip-rule="evenodd" d="M4.38191 1.2474L3.32557 3.52323L0.799994 3.84854C0.751315 3.85473 0.705439 3.87477 0.667823 3.90629C0.630208 3.9378 0.602436 3.97946 0.587812 4.0263C0.573187 4.07314 0.572325 4.12319 0.585329 4.17051C0.598333 4.21783 0.624655 4.26041 0.661164 4.2932L2.52922 5.97479L2.0259 8.49832C2.01621 8.54668 2.02069 8.59682 2.03881 8.6427C2.05692 8.68858 2.0879 8.72825 2.12801 8.75695C2.16813 8.78565 2.21568 8.80216 2.26495 8.80449C2.31422 8.80682 2.36311 8.79487 2.40576 8.77009L4.61398 7.49014L6.82322 8.77009C6.86584 8.79477 6.91467 8.80664 6.96387 8.80428C7.01306 8.80191 7.06053 8.78542 7.10059 8.75677C7.14065 8.72811 7.1716 8.68852 7.18973 8.64273C7.20787 8.59693 7.21241 8.54689 7.20283 8.49858L6.6995 5.97479L8.56756 4.2932C8.60398 4.26042 8.63024 4.21787 8.6432 4.17061C8.65617 4.12335 8.65531 4.07336 8.64072 4.02658C8.62614 3.9798 8.59843 3.93818 8.5609 3.90667C8.52337 3.87515 8.47759 3.85507 8.42899 3.84879L5.90341 3.52323L4.8463 1.2474C4.82574 1.20311 4.79294 1.16562 4.75178 1.13935C4.71062 1.11308 4.66281 1.09912 4.61398 1.09912C4.56515 1.09912 4.51734 1.11308 4.47617 1.13935C4.43501 1.16562 4.40222 1.20311 4.38166 1.2474H4.38191Z" fill="#222222"/>
</g>
<defs>
<clipPath id="clip0_1_34">
<rect width="8.19661" height="8.19661" fill="white" transform="translate(0.513672 0.842773)"/>
</clipPath>
</defs>
</svg>
