;<svg width="14" height="14" viewBox="0 0 14 14" fill="none" xmlns="http://www.w3.org/2000/svg">
  <path
    fill-rule="evenodd"
    clip-rule="evenodd"
    d="M6.60381 0.690755L4.79956 4.57794L0.485809 5.13357C0.402664 5.14414 0.324307 5.17838 0.260058 5.23221C0.19581 5.28603 0.148375 5.35718 0.123396 5.43719C0.0984175 5.51719 0.0969459 5.60269 0.119157 5.68351C0.141368 5.76433 0.186326 5.83706 0.248684 5.89307L3.43937 8.76526L2.57968 13.0755C2.56314 13.1581 2.57079 13.2437 2.60173 13.3221C2.63267 13.4005 2.68558 13.4682 2.7541 13.5172C2.82262 13.5663 2.90383 13.5945 2.98799 13.5984C3.07214 13.6024 3.15566 13.582 3.2285 13.5397L7.00018 11.3535L10.7736 13.5397C10.8464 13.5818 10.9298 13.6021 11.0139 13.5981C11.0979 13.5941 11.179 13.5659 11.2474 13.5169C11.3158 13.468 11.3687 13.4004 11.3996 13.3222C11.4306 13.2439 11.4384 13.1585 11.422 13.0759L10.5623 8.76526L13.753 5.89307C13.8152 5.83707 13.86 5.7644 13.8822 5.68368C13.9043 5.60296 13.9029 5.51758 13.878 5.43767C13.853 5.35776 13.8057 5.28668 13.7416 5.23285C13.6775 5.17903 13.5993 5.14472 13.5163 5.13401L9.20256 4.57794L7.397 0.690755C7.36187 0.615109 7.30586 0.551079 7.23555 0.506209C7.16525 0.461339 7.08359 0.4375 7.00018 0.4375C6.91678 0.4375 6.83512 0.461339 6.76481 0.506209C6.69451 0.551079 6.63849 0.615109 6.60337 0.690755H6.60381Z"
    fill="#222222"
  />
</svg>
