<svg width="19" height="18" viewBox="0 0 19 18" fill="none" xmlns="http://www.w3.org/2000/svg">
<path fill-rule="evenodd" clip-rule="evenodd" d="M18.105 3.5775C17.4525 3.85313 16.8 4.03875 16.1081 4.11188C16.8337 3.68437 17.3569 3.06 17.6381 2.21063C16.9555 2.6104 16.2128 2.89723 15.4387 3.06C14.7469 2.34 13.8919 1.96875 12.9019 1.96875C10.9837 1.96875 9.43123 3.50437 9.43123 5.41125C9.43123 5.68687 9.47061 5.94563 9.52686 6.1875C6.74811 6.05813 4.17748 4.725 2.40561 2.59875C2.09061 3.13312 1.92186 3.70687 1.92186 4.33687C1.92186 5.50125 2.50123 6.53625 3.46873 7.18313C2.90623 7.16625 2.38873 7.01438 1.88248 6.75563V6.795C1.88248 8.42063 3.07498 9.84375 4.66123 10.1587C4.30686 10.2544 4.00873 10.2881 3.74998 10.2881C3.58123 10.2881 3.35623 10.2712 3.11436 10.215C3.33173 10.9026 3.76121 11.5036 4.34123 11.9321C4.92125 12.3605 5.62203 12.5943 6.34311 12.6C5.09436 13.5787 3.65436 14.0794 2.03436 14.0794C1.71936 14.0794 1.43811 14.0625 1.22998 14.0231C2.83311 15.0581 4.60498 15.5756 6.52311 15.5756C10.6237 15.5756 13.74 13.32 15.2475 10.3444C16.0125 8.84812 16.3837 7.32938 16.3837 5.79375V5.535C16.3669 5.43938 16.3669 5.36625 16.3669 5.34938C17.046 4.86337 17.6343 4.26171 18.105 3.57187" fill="#222222"/>
</svg>
