;<svg width="23" height="23" viewBox="0 0 23 23" fill="none" xmlns="http://www.w3.org/2000/svg">
  <path
    d="M11.5999 0.825928C5.86538 0.825928 1.20068 5.49062 1.20068 11.2251C1.20068 16.9597 5.86538 21.6244 11.5999 21.6244C17.3344 21.6244 21.9991 16.9597 21.9991 11.2251C21.9991 5.49062 17.3344 0.825928 11.5999 0.825928ZM11.5999 19.8572C8.86688 19.8572 6.43088 18.5766 4.84857 16.5879C5.95075 15.1457 7.48826 14.097 9.23323 13.5973C8.60493 13.1981 8.08753 12.6469 7.72895 11.9946C7.37037 11.3423 7.18222 10.6101 7.18193 9.86577C7.18193 7.42977 9.1639 5.4478 11.5999 5.4478C14.0359 5.4478 16.0179 7.42977 16.0179 9.86577C16.0172 10.6102 15.8289 11.3425 15.4702 11.9948C15.1115 12.6472 14.5942 13.1986 13.9659 13.5979C15.7112 14.0974 17.249 15.1461 18.3512 16.5886C16.7689 18.5766 14.3329 19.8572 11.5999 19.8572Z"
    fill="#717171"
  />
</svg>
